<?xml version="1.0" encoding="UTF-8" standalone="no"?>
<!-- Created with Inkscape (http://www.inkscape.org/) -->

<svg
   width="297mm"
   height="210mm"
   viewBox="0 0 297 210"
   version="1.1"
   id="svg1"
   xml:space="preserve"
   xmlns="http://www.w3.org/2000/svg"
   xmlns:svg="http://www.w3.org/2000/svg"><defs
     id="defs1"><marker
       id="DistanceX"
       orient="auto"
       refX="0.0"
       refY="0.0"
       style="overflow:visible"><path
         d="M 3,-3 L -3,3 M 0,-5 L  0,5"
         style="stroke:#000000; stroke-width:0.5"
         id="path1" /></marker><pattern
       id="Hatch"
       patternUnits="userSpaceOnUse"
       width="8"
       height="8"
       x="0"
       y="0"><path
         d="M8 4 l-4,4"
         stroke="#000000"
         stroke-width="0.25"
         linecap="square"
         id="path2" /><path
         d="M6 2 l-4,4"
         stroke="#000000"
         stroke-width="0.25"
         linecap="square"
         id="path3" /><path
         d="M4 0 l-4,4"
         stroke="#000000"
         stroke-width="0.25"
         linecap="square"
         id="path4" /></pattern><marker
       id="DistanceX-4"
       orient="auto"
       refX="0.0"
       refY="0.0"
       style="overflow:visible"><path
         d="M 3,-3 L -3,3 M 0,-5 L  0,5"
         style="stroke:#000000; stroke-width:0.5"
         id="path1-7" /></marker><pattern
       id="Hatch-9"
       patternUnits="userSpaceOnUse"
       width="8"
       height="8"
       x="0"
       y="0"><path
         d="M8 4 l-4,4"
         stroke="#000000"
         stroke-width="0.25"
         linecap="square"
         id="path2-5" /><path
         d="M6 2 l-4,4"
         stroke="#000000"
         stroke-width="0.25"
         linecap="square"
         id="path3-3" /><path
         d="M4 0 l-4,4"
         stroke="#000000"
         stroke-width="0.25"
         linecap="square"
         id="path4-3" /></pattern></defs><g
     id="layer1"><g
       id="g1"
       transform="matrix(0.26458333,0,0,0.26458333,66.650193,-207.66413)"><g
         id="g4" /><path
         d="m 98.645672,1232.2024 c 0,3.3398 -2.707443,6.0472 -6.047244,6.0472 -3.339801,0 -6.047244,-2.7074 -6.047244,-6.0472 0,-3.3398 2.707443,-6.0472 6.047244,-6.0472 3.339801,0 6.047244,2.7074 6.047244,6.0472 z"
         style="display:inline;fill:none;stroke:#ff0000;stroke-opacity:1"
         id="path6" /><path
         d="m -86.263718,1232.1398 c 0,3.3398 -2.70745,6.0472 -6.04725,6.0472 -3.3398,0 -6.04724,-2.7074 -6.04724,-6.0472 0,-3.3398 2.70744,-6.0472 6.04724,-6.0472 3.3398,0 6.04725,2.7074 6.04725,6.0472 z"
         style="display:inline;fill:none;stroke:#ff0000;stroke-opacity:1"
         id="path6-5" /><g
         id="g424"
         style="display:inline;fill:none;stroke:#ff0000;stroke-opacity:1"><path
           d="m -86.551181,1012.9134 a 6.047244,6.047244 0 0 0 -12.094488,0 6.047244,6.047244 0 0 0 12.094488,0 z"
           style="fill:none;stroke:#ff0000;stroke-opacity:1"
           id="path417" /><path
           d="m 98.645669,1012.9134 c 0,3.3398 -2.707443,6.0472 -6.047244,6.0472 -3.339801,0 -6.047244,-2.7074 -6.047244,-6.0472 0,-3.3398 2.707443,-6.0472 6.047244,-6.0472 3.339801,0 6.047244,2.7074 6.047244,6.0472 z"
           style="fill:none;stroke:#ff0000;stroke-opacity:1"
           id="path418" /></g></g><g
       id="g6"
       transform="matrix(0.26458333,0,0,0.26458333,165.27567,-179.85313)"
       style="stroke:#ff0000;stroke-opacity:1;stroke-width:1.00157481;stroke-dasharray:none"><g
         id="g700"
         transform="translate(-27.256262,21.061657)"
         style="stroke:#ff0000;stroke-opacity:1;stroke-width:1.00157481;stroke-dasharray:none"><path
           d="m 85.03937,1107.4016 a 5.6692915,5.6692915 0 0 0 -11.338583,0 5.6692915,5.6692915 0 0 0 11.338583,0 z"
           style="fill:none;stroke:#ff0000;stroke-opacity:1;stroke-width:1.00157481;stroke-dasharray:none"
           id="path689" /><path
           d="m 311.81102,1107.4016 a 5.6692915,5.6692915 0 0 0 -11.33858,0 5.6692915,5.6692915 0 0 0 11.33858,0 z"
           style="fill:none;stroke:#ff0000;stroke-opacity:1;stroke-width:1.00157481;stroke-dasharray:none"
           id="path690" /><path
           d="m 85.03937,888.18898 a 5.6692915,5.6692915 0 0 0 -11.338583,0 5.6692915,5.6692915 0 0 0 11.338583,0 z"
           style="fill:none;stroke:#ff0000;stroke-opacity:1;stroke-width:1.00157481;stroke-dasharray:none"
           id="path691" /><path
           d="m 311.81102,888.18898 a 5.6692915,5.6692915 0 0 0 -11.33858,0 5.6692915,5.6692915 0 0 0 11.33858,0 z"
           style="fill:none;stroke:#ff0000;stroke-opacity:1;stroke-width:1.00157481;stroke-dasharray:none"
           id="path692" /></g></g><text
       xml:space="preserve"
       style="font-size:16.9333px;line-height:1.25;font-family:sans-serif;stroke-width:0.264583"
       x="54.99091"
       y="31.82975"
       id="text6"><tspan
         id="tspan6"
         style="font-style:normal;font-variant:normal;font-weight:bold;font-stretch:normal;font-size:16.9333px;font-family:'Brix Slab';-inkscape-font-specification:'Brix Slab Bold';stroke-width:0.264583"
         x="54.99091"
         y="31.82975">senseBox Mikrocontroller</tspan></text><text
       xml:space="preserve"
       style="font-size:5.64444px;line-height:1.25;font-family:sans-serif;stroke-width:0.264583"
       x="41.326488"
       y="134.42986"
       id="text7"><tspan
         id="tspan7"
         style="font-style:normal;font-variant:normal;font-weight:normal;font-stretch:normal;font-family:'Brix Slab';-inkscape-font-specification:'Brix Slab';stroke-width:0.264583"
         x="41.326488"
         y="134.42986">senseBox MCU-S2</tspan></text><text
       xml:space="preserve"
       style="font-size:5.64444px;line-height:1.25;font-family:sans-serif;stroke-width:0.264583"
       x="189.73164"
       y="137.28505"
       id="text7-2"><tspan
         id="tspan7-7"
         style="font-style:normal;font-variant:normal;font-weight:normal;font-stretch:normal;font-family:'Brix Slab';-inkscape-font-specification:'Brix Slab';stroke-width:0.264583"
         x="189.73164"
         y="137.28505">senseBox MCU</tspan></text><g
       style="clip-rule:evenodd;fill-rule:evenodd;stroke-linejoin:round;stroke-miterlimit:1.41421"
       id="g3"
       transform="matrix(0.30367937,0,0,0.30367937,113.07866,174.26801)"><path
         d="m 22.48,43.14 h -3 l -0.53,-2.82 c -0.927,-0.345 -1.911,-0.511 -2.9,-0.49 -2,0 -2.9,1.15 -2.9,2.37 0,1.22 0.49,1.8 2,2.29 l 3.11,0.94 c 3.23,1 4.95,2.62 4.95,5.48 0,2.86 -2.21,5.55 -7.56,5.55 -2.328,0.016 -4.635,-0.429 -6.79,-1.31 L 8.5,49.76 h 3 L 12.38,53 c 1.027,0.46 2.145,0.682 3.27,0.65 1.88,0 3.19,-0.82 3.19,-2.33 0,-1.18 -0.74,-1.88 -2.17,-2.37 l -3.27,-1 C 10.54,47.05 8.86,45.37 8.86,42.63 8.86,39.89 10.63,37 16,37 c 2.216,0.003 4.415,0.389 6.5,1.14 z"
         style="fill:#000000;fill-rule:nonzero"
         id="path1-8" /><path
         d="m 40.63,51.27 1.27,3 c -2.098,1.389 -4.554,2.143 -7.07,2.17 C 28.54,56.44 26,52.35 26,46.67 26,41.34 28.74,37 34.42,37 c 5.44,0 7.64,3.92 7.64,7.93 0.003,1.032 -0.108,2.062 -0.33,3.07 H 30.08 c 0,3.15 1.51,5.07 4.78,5.07 2.057,-0.028 4.062,-0.654 5.77,-1.8 z M 38.26,45 c 0.018,-0.216 0.018,-0.434 0,-0.65 0,-2.62 -1.59,-4.13 -3.92,-4.13 -3,0 -4.09,2.13 -4.25,4.78 z"
         style="fill:#000000;fill-rule:nonzero"
         id="path2-9" /><path
         d="M 44.92,52.66 H 47.5 V 40.72 H 45 v -3.35 h 5.89 v 2.13 c 1.68,-1.718 4.021,-2.629 6.42,-2.5 4.46,0 6.25,2.49 6.25,7.23 v 8.46 H 66.1 V 56 h -9.24 v -3.34 h 2.9 v -8.09 c 0,-2.49 -0.61,-4 -3.76,-4 -1.716,0.054 -3.373,0.641 -4.74,1.68 v 10.41 h 2.9 V 56 h -9.24 z"
         style="fill:#000000;fill-rule:nonzero"
         id="path3-7" /><path
         d="m 82.16,43.14 h -3 l -0.53,-2.82 c -0.927,-0.345 -1.911,-0.511 -2.9,-0.49 -2,0 -2.9,1.15 -2.9,2.37 0,1.22 0.49,1.8 2,2.29 l 3.11,0.94 c 3.23,1 4.95,2.62 4.95,5.48 0,2.86 -2.13,5.56 -7.48,5.56 -2.328,0.016 -4.635,-0.429 -6.79,-1.31 l -0.37,-5.39 h 3 L 72.07,53 c 1.027,0.46 2.145,0.682 3.27,0.65 1.88,0 3.19,-0.82 3.19,-2.33 0,-1.18 -0.74,-1.88 -2.17,-2.37 l -3.27,-1 c -2.86,-0.9 -4.54,-2.58 -4.54,-5.32 0,-2.74 1.76,-5.63 7.11,-5.63 2.216,0.003 4.415,0.389 6.5,1.14 z"
         style="fill:#000000;fill-rule:nonzero"
         id="path4-0" /><path
         d="m 100.31,51.27 1.27,3 c -2.098,1.389 -4.554,2.143 -7.07,2.17 -6.29,0 -8.83,-4.09 -8.83,-9.77 0,-5.35 2.74,-9.73 8.42,-9.73 5.44,0 7.64,3.92 7.64,7.93 0.003,1.032 -0.108,2.062 -0.33,3.07 H 89.77 c 0,3.15 1.51,5.07 4.78,5.07 2.047,-0.013 4.048,-0.617 5.76,-1.74 z M 97.94,45 c 0.018,-0.216 0.018,-0.434 0,-0.65 0,-2.62 -1.59,-4.13 -3.92,-4.13 -3,0 -4.09,2.13 -4.25,4.78 z"
         style="fill:#000000;fill-rule:nonzero"
         id="path5" /><path
         d="m 104.85,52.62 h 2.94 V 31.77 h -2.94 v -3.39 h 11.9 c 5.64,0 8.13,2.82 8.13,7.2 0,3.07 -1.72,5.35 -4,5.89 3.122,0.736 5.327,3.573 5.27,6.78 0,5.89 -4.17,7.77 -9.44,7.77 h -11.9 z M 116,40.07 c 3.23,0 4.74,-1.55 4.74,-4.29 0,-2.41 -1.19,-4 -4.62,-4 h -4.32 v 8.3 z m 0.49,12.55 c 4.09,0 5.6,-1.72 5.6,-4.54 0,-2.58 -1.31,-4.66 -5.64,-4.66 h -4.65 v 9.2 z"
         style="fill:#000000;fill-rule:nonzero"
         id="path6-8" /><path
         d="m 146.14,46.65 c 0,5.76 -2.33,9.81 -8.79,9.81 -6.17,0 -8.58,-4 -8.58,-9.73 0,-5.73 2.32,-9.73 8.74,-9.73 6.42,0 8.63,4 8.63,9.65 z m -4,0.08 c 0,-4.13 -1.1,-6.21 -4.66,-6.21 -3.56,0 -4.66,2.08 -4.66,6.13 0,4.05 1.18,6.25 4.7,6.25 3.52,0 4.57,-2.16 4.57,-6.17 z"
         style="fill:#000000;fill-rule:nonzero"
         id="path7-8" /><path
         d="M 154.64,52.66 H 158 V 56 h -9.32 V 52.66 H 151 l 5,-6.25 -4.38,-5.68 h -2.9 v -3.36 h 7.73 v 3.19 l 3.27,4.29 3.11,-4.13 h -3.31 v -3.35 h 9.28 v 3.35 h -2.53 l -4.66,5.93 4.95,6 h 2.66 V 56 h -7.64 v -3.18 l -3.6,-4.7 z"
         style="fill:#000000;fill-rule:nonzero"
         id="path8-6" /><path
         d="m 205.64,35.65 c 0.017,0.104 0.026,0.21 0.026,0.315 0,1.054 -0.867,1.92 -1.92,1.92 -1.053,0 -1.92,-0.866 -1.92,-1.92 0,-0.938 0.688,-1.745 1.614,-1.895 0.104,-0.017 0.209,-0.026 0.314,-0.026 0.934,0 1.737,0.684 1.886,1.606"
         style="fill:#000000;fill-rule:nonzero"
         id="path9-2" /><path
         d="m 205.64,43.73 c 0.016,0.101 0.024,0.203 0.024,0.306 0,1.053 -0.866,1.92 -1.92,1.92 -1.053,0 -1.92,-0.867 -1.92,-1.92 0,-0.939 0.689,-1.747 1.616,-1.896 0.103,-0.017 0.208,-0.026 0.313,-0.026 0.937,0 1.743,0.69 1.887,1.616"
         style="fill:#000000;fill-rule:nonzero"
         id="path10" /><path
         d="m 211.88,50.57 c 0.016,0.101 0.024,0.203 0.024,0.306 0,1.053 -0.866,1.92 -1.92,1.92 -1.053,0 -1.92,-0.867 -1.92,-1.92 0,-0.939 0.689,-1.747 1.616,-1.896 1.039,-0.167 2.032,0.551 2.2,1.59"
         style="fill:#000000;fill-rule:nonzero"
         id="path11-2" /><path
         d="m 213.8,39.9 c 0.016,0.101 0.024,0.203 0.024,0.306 0,1.053 -0.866,1.92 -1.92,1.92 -1.053,0 -1.92,-0.867 -1.92,-1.92 0,-0.939 0.689,-1.747 1.616,-1.896 1.039,-0.167 2.032,0.551 2.2,1.59"
         style="fill:#000000;fill-rule:nonzero"
         id="path12-7" /><path
         d="m 197.06,28.42 9.67,-9.67 9.76,9.76 c -5.787,4.198 -13.678,4.166 -19.43,-0.08 z"
         style="fill:#000000;fill-rule:nonzero"
         id="path13-3" /><path
         d="m 224.18,55.46 -3.51,-3.51 3.63,-3.63 h -7.26 l -2.51,-2.51 2.44,-2.45 h 7.4 l -3.7,-3.7 3.51,-3.51 9.61,9.61 z"
         style="fill:#000000;fill-rule:nonzero"
         id="path14-1" /><path
         d="m 218.39,61.21 c -6.47,-6.178 -16.79,-6.178 -23.26,0 l 11.61,11.61 z"
         style="fill:#000000;fill-rule:nonzero"
         id="path15" /><path
         d="m 182.72,42.76 c 1.668,1.671 1.668,4.419 0,6.09 l 2.4,2.4 c 2.981,-2.986 2.981,-7.894 0,-10.88 z"
         style="fill:#000000;fill-rule:nonzero"
         id="path16" /><path
         d="m 187,38.52 c 3.994,4.002 3.994,10.578 0,14.58 l 2.4,2.4 c 5.311,-5.314 5.311,-14.056 0,-19.37 z"
         style="fill:#000000;fill-rule:nonzero"
         id="path17" /><path
         d="m 191.21,34.27 c 3.061,3.056 4.783,7.209 4.783,11.535 0,4.326 -1.722,8.479 -4.783,11.535 l 2.4,2.4 c 3.698,-3.69 5.778,-8.706 5.778,-13.93 0,-5.224 -2.08,-10.24 -5.778,-13.93 z"
         style="fill:#000000;fill-rule:nonzero"
         id="path18" /><path
         d="m 179.67,45.81 1.52,1.52 c 0.403,-0.395 0.63,-0.936 0.63,-1.5 0,-0.564 -0.227,-1.105 -0.63,-1.5 z"
         style="fill:#000000;fill-rule:nonzero"
         id="path19" /></g><path
       style="fill:none;stroke:#ff0000;stroke-width:0.264583;stroke-linejoin:round;stroke-dasharray:none;stroke-opacity:1;paint-order:markers fill stroke"
       id="rect7"
       width="280.73511"
       height="197.60713"
       x="9.5003424"
       y="8.5503082"
       d="M 14.792009,8.5503082 H 284.94378 a 5.2916667,5.2916667 45 0 1 5.29167,5.2916668 V 200.86577 a 5.2916667,5.2916667 135 0 1 -5.29167,5.29167 H 14.792009 A 5.2916667,5.2916667 45 0 1 9.5003424,200.86577 V 13.841975 A 5.2916667,5.2916667 135 0 1 14.792009,8.5503082 Z" /><text
       xml:space="preserve"
       style="font-size:5.64444px;line-height:1.25;font-family:sans-serif;stroke-width:0.264583"
       x="28.501028"
       y="143.45518"
       id="text8"><tspan
         id="tspan8"
         style="font-style:normal;font-variant:normal;font-weight:bold;font-stretch:normal;font-family:'Brix Slab';-inkscape-font-specification:'Brix Slab Bold';stroke-width:0.264583"
         x="28.501028"
         y="143.45518">- ESP32-S2</tspan><tspan
         style="font-style:normal;font-variant:normal;font-weight:bold;font-stretch:normal;font-family:'Brix Slab';-inkscape-font-specification:'Brix Slab Bold';stroke-width:0.264583"
         x="28.501028"
         y="150.89078"
         id="tspan9">- WiFi...</tspan><tspan
         style="font-style:normal;font-variant:normal;font-weight:bold;font-stretch:normal;font-family:'Brix Slab';-inkscape-font-specification:'Brix Slab Bold';stroke-width:0.264583"
         x="28.501028"
         y="158.32637"
         id="tspan10">- MPU</tspan></text></g></svg>
