<?xml version="1.0" encoding="UTF-8" standalone="no"?>
<!-- Created with Inkscape (http://www.inkscape.org/) -->

<svg
   width="297mm"
   height="210mm"
   viewBox="0 0 297 210"
   version="1.1"
   id="svg1"
   xml:space="preserve"
   sodipodi:docname="senseBox_Boards.svg"
   inkscape:version="1.1.2 (0a00cf5339, 2022-02-04)"
   xmlns:inkscape="http://www.inkscape.org/namespaces/inkscape"
   xmlns:sodipodi="http://sodipodi.sourceforge.net/DTD/sodipodi-0.dtd"
   xmlns="http://www.w3.org/2000/svg"
   xmlns:svg="http://www.w3.org/2000/svg"><sodipodi:namedview
     id="namedview61"
     pagecolor="#ffffff"
     bordercolor="#666666"
     borderopacity="1.0"
     inkscape:pageshadow="2"
     inkscape:pageopacity="0.0"
     inkscape:pagecheckerboard="0"
     inkscape:document-units="mm"
     showgrid="false"
     inkscape:snap-grids="true"
     showguides="false"
     inkscape:zoom="1.0419544"
     inkscape:cx="576.32081"
     inkscape:cy="406.44773"
     inkscape:window-width="1920"
     inkscape:window-height="1132"
     inkscape:window-x="1920"
     inkscape:window-y="0"
     inkscape:window-maximized="1"
     inkscape:current-layer="svg1" /><defs
     id="defs1"><marker
       id="DistanceX"
       orient="auto"
       refX="0.0"
       refY="0.0"
       style="overflow:visible"><path
         d="M 3,-3 L -3,3 M 0,-5 L  0,5"
         style="stroke:#000000; stroke-width:0.5"
         id="path1" /></marker><pattern
       id="Hatch"
       patternUnits="userSpaceOnUse"
       width="8"
       height="8"
       x="0"
       y="0"><path
         d="M8 4 l-4,4"
         stroke="#000000"
         stroke-width="0.25"
         linecap="square"
         id="path2" /><path
         d="M6 2 l-4,4"
         stroke="#000000"
         stroke-width="0.25"
         linecap="square"
         id="path3" /><path
         d="M4 0 l-4,4"
         stroke="#000000"
         stroke-width="0.25"
         linecap="square"
         id="path4" /></pattern><marker
       id="DistanceX-4"
       orient="auto"
       refX="0.0"
       refY="0.0"
       style="overflow:visible"><path
         d="M 3,-3 L -3,3 M 0,-5 L  0,5"
         style="stroke:#000000; stroke-width:0.5"
         id="path1-7" /></marker><pattern
       id="Hatch-9"
       patternUnits="userSpaceOnUse"
       width="8"
       height="8"
       x="0"
       y="0"><path
         d="M8 4 l-4,4"
         stroke="#000000"
         stroke-width="0.25"
         linecap="square"
         id="path2-5" /><path
         d="M6 2 l-4,4"
         stroke="#000000"
         stroke-width="0.25"
         linecap="square"
         id="path3-3" /><path
         d="M4 0 l-4,4"
         stroke="#000000"
         stroke-width="0.25"
         linecap="square"
         id="path4-3" /></pattern></defs><g
     id="layer1"><g
       id="g1"
       transform="matrix(0.26458333,0,0,0.26458333,201.73309,-223.47804)"><g
         id="g4" /><path
         d="m 98.645672,1232.2024 c 0,3.3398 -2.707443,6.0472 -6.047244,6.0472 -3.339801,0 -6.047244,-2.7074 -6.047244,-6.0472 0,-3.3398 2.707443,-6.0472 6.047244,-6.0472 3.339801,0 6.047244,2.7074 6.047244,6.0472 z"
         style="display:inline;fill:none;stroke:#ff0000;stroke-opacity:1"
         id="path6" /><path
         d="m -86.263718,1232.1398 c 0,3.3398 -2.70745,6.0472 -6.04725,6.0472 -3.3398,0 -6.04724,-2.7074 -6.04724,-6.0472 0,-3.3398 2.70744,-6.0472 6.04724,-6.0472 3.3398,0 6.04725,2.7074 6.04725,6.0472 z"
         style="display:inline;fill:none;stroke:#ff0000;stroke-opacity:1"
         id="path6-5" /><g
         id="g424"
         style="display:inline;fill:none;stroke:#ff0000;stroke-opacity:1"><path
           d="m -86.551181,1012.9134 a 6.047244,6.047244 0 0 0 -12.094488,0 6.047244,6.047244 0 0 0 12.094488,0 z"
           style="fill:none;stroke:#ff0000;stroke-opacity:1"
           id="path417" /><path
           d="m 98.645669,1012.9134 c 0,3.3398 -2.707443,6.0472 -6.047244,6.0472 -3.339801,0 -6.047244,-2.7074 -6.047244,-6.0472 0,-3.3398 2.707443,-6.0472 6.047244,-6.0472 3.339801,0 6.047244,2.7074 6.047244,6.0472 z"
           style="fill:none;stroke:#ff0000;stroke-opacity:1"
           id="path418" /></g></g><g
       id="g6"
       transform="matrix(0.26458333,0,0,0.26458333,34.225469,-196.15039)"
       style="stroke:#ff0000;stroke-width:1.00157;stroke-dasharray:none;stroke-opacity:1"><g
         id="g700"
         transform="translate(-27.256262,21.061657)"
         style="stroke:#ff0000;stroke-width:1.00157;stroke-dasharray:none;stroke-opacity:1"><path
           d="m 85.03937,1107.4016 a 5.6692915,5.6692915 0 0 0 -11.338583,0 5.6692915,5.6692915 0 0 0 11.338583,0 z"
           style="fill:none;stroke:#ff0000;stroke-width:1.00157;stroke-dasharray:none;stroke-opacity:1"
           id="path689" /><path
           d="m 311.81102,1107.4016 a 5.6692915,5.6692915 0 0 0 -11.33858,0 5.6692915,5.6692915 0 0 0 11.33858,0 z"
           style="fill:none;stroke:#ff0000;stroke-width:1.00157;stroke-dasharray:none;stroke-opacity:1"
           id="path690" /><path
           d="m 85.03937,888.18898 a 5.6692915,5.6692915 0 0 0 -11.338583,0 5.6692915,5.6692915 0 0 0 11.338583,0 z"
           style="fill:none;stroke:#ff0000;stroke-width:1.00157;stroke-dasharray:none;stroke-opacity:1"
           id="path691" /><path
           d="m 311.81102,888.18898 a 5.6692915,5.6692915 0 0 0 -11.33858,0 5.6692915,5.6692915 0 0 0 11.33858,0 z"
           style="fill:none;stroke:#ff0000;stroke-width:1.00157;stroke-dasharray:none;stroke-opacity:1"
           id="path692" /></g></g><text
       xml:space="preserve"
       style="font-size:16.9333px;line-height:1.25;font-family:sans-serif;stroke-width:0.264583"
       x="54.99091"
       y="31.82975"
       id="text6"><tspan
         id="tspan6"
         style="font-style:normal;font-variant:normal;font-weight:bold;font-stretch:normal;font-size:16.9333px;font-family:'Brix Slab';-inkscape-font-specification:'Brix Slab Bold';stroke-width:0.264583"
         x="54.99091"
         y="31.82975">senseBox Mikrocontroller</tspan></text><text
       xml:space="preserve"
       style="font-size:6.35px;line-height:1.25;font-family:sans-serif;stroke-width:0.264583"
       x="170.88469"
       y="118.66634"
       id="text7"><tspan
         id="tspan7"
         style="font-style:normal;font-variant:normal;font-weight:bold;font-stretch:normal;font-size:6.35px;font-family:'Brix Slab';-inkscape-font-specification:'Brix Slab Bold';stroke-width:0.264583"
         x="170.88469"
         y="118.66634">senseBox MCU-S2</tspan></text><text
       xml:space="preserve"
       style="font-size:6.35px;line-height:1.25;font-family:sans-serif;stroke-width:0.264583"
       x="51.098011"
       y="118.66634"
       id="text7-2"><tspan
         id="tspan7-7"
         style="font-style:normal;font-variant:normal;font-weight:bold;font-stretch:normal;font-size:6.35px;font-family:'Brix Slab';-inkscape-font-specification:'Brix Slab Bold';stroke-width:0.264583"
         x="51.098011"
         y="118.66634">senseBox MCU</tspan></text><g
       style="clip-rule:evenodd;fill-rule:evenodd;stroke-linejoin:round;stroke-miterlimit:1.41421"
       id="g3"
       transform="matrix(0.30367937,0,0,0.30367937,64.071761,173.77377)"><path
         d="m 703.41591,56.674068 c 0.017,0.104 0.026,0.21 0.026,0.315 0,1.054 -0.867,1.92 -1.92,1.92 -1.053,0 -1.92,-0.866 -1.92,-1.92 0,-0.938 0.688,-1.745 1.614,-1.895 0.104,-0.017 0.209,-0.026 0.314,-0.026 0.934,0 1.737,0.684 1.886,1.606"
         style="fill:#000000;fill-rule:nonzero"
         id="path9-2" /><path
         d="m 703.41591,64.754068 c 0.016,0.101 0.024,0.203 0.024,0.306 0,1.053 -0.866,1.92 -1.92,1.92 -1.053,0 -1.92,-0.867 -1.92,-1.92 0,-0.939 0.689,-1.747 1.616,-1.896 0.103,-0.017 0.208,-0.026 0.313,-0.026 0.937,0 1.743,0.69 1.887,1.616"
         style="fill:#000000;fill-rule:nonzero"
         id="path10" /><path
         d="m 709.65591,71.594068 c 0.016,0.101 0.024,0.203 0.024,0.306 0,1.053 -0.866,1.92 -1.92,1.92 -1.053,0 -1.92,-0.867 -1.92,-1.92 0,-0.939 0.689,-1.747 1.616,-1.896 1.039,-0.167 2.032,0.551 2.2,1.59"
         style="fill:#000000;fill-rule:nonzero"
         id="path11-2" /><path
         d="m 711.57591,60.924068 c 0.016,0.101 0.024,0.203 0.024,0.306 0,1.053 -0.866,1.92 -1.92,1.92 -1.053,0 -1.92,-0.867 -1.92,-1.92 0,-0.939 0.689,-1.747 1.616,-1.896 1.039,-0.167 2.032,0.551 2.2,1.59"
         style="fill:#000000;fill-rule:nonzero"
         id="path12-7" /><path
         d="m 694.83591,49.444068 9.67,-9.67 9.76,9.76 c -5.787,4.198 -13.678,4.166 -19.43,-0.08 z"
         style="fill:#000000;fill-rule:nonzero"
         id="path13-3" /><path
         d="m 721.95591,76.484068 -3.51,-3.51 3.63,-3.63 h -7.26 l -2.51,-2.51 2.44,-2.45 h 7.4 l -3.7,-3.7 3.51,-3.51 9.61,9.61 z"
         style="fill:#000000;fill-rule:nonzero"
         id="path14-1" /><path
         d="m 716.16591,82.234068 c -6.47,-6.178 -16.79,-6.178 -23.26,0 l 11.61,11.61 z"
         style="fill:#000000;fill-rule:nonzero"
         id="path15" /><path
         d="m 680.49591,63.784068 c 1.668,1.671 1.668,4.419 0,6.09 l 2.4,2.4 c 2.981,-2.986 2.981,-7.894 0,-10.88 z"
         style="fill:#000000;fill-rule:nonzero"
         id="path16" /><path
         d="m 684.77591,59.544068 c 3.994,4.002 3.994,10.578 0,14.58 l 2.4,2.4 c 5.311,-5.314 5.311,-14.056 0,-19.37 z"
         style="fill:#000000;fill-rule:nonzero"
         id="path17" /><path
         d="m 688.98591,55.294068 c 3.061,3.056 4.783,7.209 4.783,11.535 0,4.326 -1.722,8.479 -4.783,11.535 l 2.4,2.4 c 3.698,-3.69 5.778,-8.706 5.778,-13.93 0,-5.224 -2.08,-10.24 -5.778,-13.93 z"
         style="fill:#000000;fill-rule:nonzero"
         id="path18" /><path
         d="m 677.44591,66.834068 1.52,1.52 c 0.403,-0.395 0.63,-0.936 0.63,-1.5 0,-0.564 -0.227,-1.105 -0.63,-1.5 z"
         style="fill:#000000;fill-rule:nonzero"
         id="path19" /></g><path
       style="fill:none;stroke:#ff0000;stroke-width:0.264583;stroke-linejoin:round;stroke-dasharray:none;stroke-opacity:1;paint-order:markers fill stroke"
       id="rect7"
       width="280.73511"
       height="197.60713"
       x="9.5003424"
       y="8.5503082"
       d="M 14.792009,8.5503082 H 284.94378 a 5.2916667,5.2916667 45 0 1 5.29167,5.2916668 V 200.86577 a 5.2916667,5.2916667 135 0 1 -5.29167,5.29167 H 14.792009 A 5.2916667,5.2916667 45 0 1 9.5003424,200.86577 V 13.841975 A 5.2916667,5.2916667 135 0 1 14.792009,8.5503082 Z" /></g><text
     xml:space="preserve"
     style="font-size:5.64444px;line-height:1.25;font-family:'Brix Slab';-inkscape-font-specification:'Brix Slab';letter-spacing:0px;stroke-width:0.264583"
     x="171.1274"
     y="128.95178"
     id="text22088"><tspan
       sodipodi:role="line"
       id="tspan22086"
       style="font-style:normal;font-variant:normal;font-weight:normal;font-stretch:normal;font-size:5.64444px;font-family:'Brix Slab';-inkscape-font-specification:'Brix Slab';stroke-width:0.264583"
       x="171.1274"
       y="128.95178">- ESP32-S2</tspan><tspan
       sodipodi:role="line"
       style="font-style:normal;font-variant:normal;font-weight:normal;font-stretch:normal;font-size:5.64444px;font-family:'Brix Slab';-inkscape-font-specification:'Brix Slab';stroke-width:0.264583"
       x="171.1274"
       y="136.00734"
       id="tspan60156">- integriertes WiFi</tspan><tspan
       sodipodi:role="line"
       style="font-style:normal;font-variant:normal;font-weight:normal;font-stretch:normal;font-size:5.64444px;font-family:'Brix Slab';-inkscape-font-specification:'Brix Slab';stroke-width:0.264583"
       x="171.1274"
       y="143.06288"
       id="tspan39036">- 3-Achsen Beschleunigungssensor</tspan><tspan
       sodipodi:role="line"
       style="font-style:normal;font-variant:normal;font-weight:normal;font-stretch:normal;font-size:5.64444px;font-family:'Brix Slab';-inkscape-font-specification:'Brix Slab';stroke-width:0.264583"
       x="171.1274"
       y="150.11844"
       id="tspan48546">- Micro SD Slot</tspan><tspan
       sodipodi:role="line"
       style="font-style:normal;font-variant:normal;font-weight:normal;font-stretch:normal;font-size:5.64444px;font-family:'Brix Slab';-inkscape-font-specification:'Brix Slab';stroke-width:0.264583"
       x="171.1274"
       y="157.17398"
       id="tspan51944">- Lichtsensor</tspan><tspan
       sodipodi:role="line"
       style="font-style:normal;font-variant:normal;font-weight:normal;font-stretch:normal;font-size:5.64444px;font-family:'Brix Slab';-inkscape-font-specification:'Brix Slab';stroke-width:0.264583"
       x="171.1274"
       y="164.22954"
       id="tspan64234">- RGB LED</tspan><tspan
       sodipodi:role="line"
       style="font-style:normal;font-variant:normal;font-weight:normal;font-stretch:normal;font-size:5.64444px;font-family:'Brix Slab';-inkscape-font-specification:'Brix Slab';stroke-width:0.264583"
       x="171.1274"
       y="171.28508"
       id="tspan66218">- Anschlüsse (Qwiic):</tspan><tspan
       sodipodi:role="line"
       style="font-style:normal;font-variant:normal;font-weight:normal;font-stretch:normal;font-size:5.64444px;font-family:'Brix Slab';-inkscape-font-specification:'Brix Slab';stroke-width:0.264583"
       x="171.1274"
       y="178.34064"
       id="tspan66220">    - 2x I2C</tspan><tspan
       sodipodi:role="line"
       style="font-style:normal;font-variant:normal;font-weight:normal;font-stretch:normal;font-size:5.64444px;font-family:'Brix Slab';-inkscape-font-specification:'Brix Slab';stroke-width:0.264583"
       x="171.1274"
       y="185.39618"
       id="tspan67788">    - 3x GPIO</tspan><tspan
       sodipodi:role="line"
       style="font-style:normal;font-variant:normal;font-weight:normal;font-stretch:normal;font-size:5.64444px;font-family:'Brix Slab';-inkscape-font-specification:'Brix Slab';stroke-width:0.264583"
       x="171.1274"
       y="192.45174"
       id="tspan67790">    - 1x UART</tspan><tspan
       sodipodi:role="line"
       style="font-style:normal;font-variant:normal;font-weight:bold;font-stretch:normal;font-size:5.64444px;font-family:'Brix Slab';-inkscape-font-specification:'Brix Slab Bold';stroke-width:0.264583"
       x="171.1274"
       y="199.50728"
       id="tspan43054" /></text><text
     xml:space="preserve"
     style="font-size:5.64444px;line-height:1.25;font-family:'Brix Slab';-inkscape-font-specification:'Brix Slab';letter-spacing:0px;stroke-width:0.264583"
     x="51.340721"
     y="128.95178"
     id="text22088-3"><tspan
       sodipodi:role="line"
       style="font-style:normal;font-variant:normal;font-weight:normal;font-stretch:normal;font-size:5.64444px;font-family:'Brix Slab';-inkscape-font-specification:'Brix Slab';stroke-width:0.264583"
       x="51.340721"
       y="128.95178"
       id="tspan64234-6">- SAMD21</tspan><tspan
       sodipodi:role="line"
       style="font-style:normal;font-variant:normal;font-weight:normal;font-stretch:normal;font-size:5.64444px;font-family:'Brix Slab';-inkscape-font-specification:'Brix Slab';stroke-width:0.264583"
       x="51.340721"
       y="136.00734"
       id="tspan66218-2">- Anschlüsse (JST):</tspan><tspan
       sodipodi:role="line"
       style="font-style:normal;font-variant:normal;font-weight:normal;font-stretch:normal;font-size:5.64444px;font-family:'Brix Slab';-inkscape-font-specification:'Brix Slab';stroke-width:0.264583"
       x="51.340721"
       y="143.06288"
       id="tspan66220-9">    - 5x I2C</tspan><tspan
       sodipodi:role="line"
       style="font-style:normal;font-variant:normal;font-weight:normal;font-stretch:normal;font-size:5.64444px;font-family:'Brix Slab';-inkscape-font-specification:'Brix Slab';stroke-width:0.264583"
       x="51.340721"
       y="150.11844"
       id="tspan67788-1">    - 3x GPIO</tspan><tspan
       sodipodi:role="line"
       style="font-style:normal;font-variant:normal;font-weight:normal;font-stretch:normal;font-size:5.64444px;font-family:'Brix Slab';-inkscape-font-specification:'Brix Slab';stroke-width:0.264583"
       x="51.340721"
       y="157.17398"
       id="tspan67790-2">    - 2x UART</tspan><tspan
       sodipodi:role="line"
       style="font-style:normal;font-variant:normal;font-weight:bold;font-stretch:normal;font-size:5.64444px;font-family:'Brix Slab';-inkscape-font-specification:'Brix Slab Bold';stroke-width:0.264583"
       x="51.340721"
       y="164.22954"
       id="tspan43054-7" /></text></svg>
