<?xml version="1.0" encoding="UTF-8" standalone="no"?>
<!-- Created with Inkscape (http://www.inkscape.org/) -->

<svg
   width="210mm"
   height="297mm"
   viewBox="0 0 210 297"
   version="1.1"
   id="svg1"
   xml:space="preserve"
   inkscape:export-filename="senseBox_25x25-holes.svg"
   inkscape:export-xdpi="96"
   inkscape:export-ydpi="96"
   xmlns:inkscape="http://www.inkscape.org/namespaces/inkscape"
   xmlns:sodipodi="http://sodipodi.sourceforge.net/DTD/sodipodi-0.dtd"
   xmlns="http://www.w3.org/2000/svg"
   xmlns:svg="http://www.w3.org/2000/svg"><sodipodi:namedview
     id="namedview1"
     pagecolor="#ffffff"
     bordercolor="#666666"
     borderopacity="1.0"
     inkscape:showpageshadow="2"
     inkscape:pageopacity="0.0"
     inkscape:pagecheckerboard="0"
     inkscape:deskcolor="#d1d1d1"
     inkscape:document-units="mm"
     inkscape:zoom="0.61864443"
     inkscape:cx="604.54759"
     inkscape:cy="669.20508"
     inkscape:window-width="1800"
     inkscape:window-height="1043"
     inkscape:window-x="0"
     inkscape:window-y="44"
     inkscape:window-maximized="0"
     inkscape:current-layer="layer1" /><defs
     id="defs1" /><g
     inkscape:label="Ebene 1"
     inkscape:groupmode="layer"
     id="layer1"><g
       id="g18-2-84"
       inkscape:label="HDC1080"
       transform="translate(185.72009,173.06156)"><g
         id="g14-0-8"
         transform="matrix(0.26458333,0,0,0.26458333,33.455524,-230.95696)"
         inkscape:label="Sensor25x25"><g
           inkscape:label="holes"
           id="g13-6-4"><path
             d="m 15.11811,1037.6828 -0.02889,0.4039 -0.05763,0.4009 -0.08609,0.3957 -0.114083,0.3885 -0.141519,0.3794 -0.168225,0.3684 -0.194079,0.3554 -0.218941,0.3407 -0.242681,0.3242 -0.265193,0.306 -0.286346,0.2864 -0.306047,0.2652 -0.324189,0.2427 -0.340666,0.2189 -0.355429,0.1941 -0.368362,0.1682 -0.379429,0.1415 -0.388547,0.1141 -0.395705,0.086 -0.400843,0.058 -0.403925,0.029 H 9.246343 l -0.403926,-0.029 -0.400842,-0.058 -0.395705,-0.086 -0.388547,-0.1141 -0.379429,-0.1415 -0.368363,-0.1682 -0.355429,-0.1941 -0.340665,-0.2189 -0.324189,-0.2427 -0.306047,-0.2652 -0.286347,-0.2864 -0.265193,-0.306 -0.242681,-0.3242 -0.218941,-0.3407 -0.194078,-0.3554 -0.168225,-0.3684 -0.141519,-0.3794 -0.114083,-0.3885 -0.086091,-0.3957 -0.057626,-0.4009 -0.028889,-0.4039 v -0.405 l 0.028889,-0.4039 0.057626,-0.4008 0.086091,-0.3957 0.114083,-0.3886 0.141519,-0.3794 0.168225,-0.3684 0.194078,-0.3554 0.218941,-0.3407 0.242681,-0.3242 0.265193,-0.306 0.286347,-0.2863 0.306047,-0.2652 0.324189,-0.2427 0.340665,-0.219 0.355429,-0.194 0.368363,-0.1683 0.379429,-0.1415 0.388547,-0.1141 0.395705,-0.086 0.400842,-0.058 0.403926,-0.029 h 0.404952 l 0.403925,0.029 0.400843,0.058 0.395705,0.086 0.388547,0.1141 0.379429,0.1415 0.368362,0.1683 0.355429,0.194 0.340666,0.219 0.324189,0.2427 0.306047,0.2652 0.286346,0.2863 0.265193,0.306 0.242681,0.3242 0.218941,0.3407 0.194079,0.3554 0.168225,0.3684 0.141519,0.3794 0.114083,0.3886 0.08609,0.3957 0.05763,0.4008 0.02889,0.4039 v 0.405 z"
             style="fill:none;stroke:#000000"
             id="path10-1-1" /><path
             d="m 15.11811,1113.2733 -0.02889,0.404 -0.05763,0.4008 -0.08609,0.3957 -0.114083,0.3886 -0.141519,0.3794 -0.168225,0.3684 -0.194079,0.3554 -0.218941,0.3406 -0.242681,0.3242 -0.265193,0.3061 -0.286346,0.2863 -0.306047,0.2652 -0.324189,0.2427 -0.340666,0.2189 -0.355429,0.1941 -0.368362,0.1682 -0.379429,0.1416 -0.388547,0.1141 -0.395705,0.086 -0.400843,0.058 -0.403925,0.029 H 9.246343 l -0.403926,-0.029 -0.400842,-0.058 -0.395705,-0.086 -0.388547,-0.1141 -0.379429,-0.1416 -0.368363,-0.1682 -0.355429,-0.1941 -0.340665,-0.2189 -0.324189,-0.2427 -0.306047,-0.2652 -0.286347,-0.2863 -0.265193,-0.3061 -0.242681,-0.3242 -0.218941,-0.3406 -0.194078,-0.3554 -0.168225,-0.3684 -0.141519,-0.3794 -0.114083,-0.3886 -0.086091,-0.3957 -0.057626,-0.4008 -0.028889,-0.404 v -0.4049 l 0.028889,-0.4039 0.057626,-0.4009 0.086091,-0.3957 0.114083,-0.3885 0.141519,-0.3795 0.168225,-0.3683 0.194078,-0.3554 0.218941,-0.3407 0.242681,-0.3242 0.265193,-0.3061 0.286347,-0.2863 0.306047,-0.2652 0.324189,-0.2427 0.340665,-0.2189 0.355429,-0.1941 0.368363,-0.1682 0.379429,-0.1415 0.388547,-0.1141 0.395705,-0.086 0.400842,-0.058 0.403926,-0.029 h 0.404952 l 0.403925,0.029 0.400843,0.058 0.395705,0.086 0.388547,0.1141 0.379429,0.1415 0.368362,0.1682 0.355429,0.1941 0.340666,0.2189 0.324189,0.2427 0.306047,0.2652 0.286346,0.2863 0.265193,0.3061 0.242681,0.3242 0.218941,0.3407 0.194079,0.3554 0.168225,0.3683 0.141519,0.3795 0.114083,0.3885 0.08609,0.3957 0.05763,0.4009 0.02889,0.4039 v 0.4049 z"
             style="fill:none;stroke:#000000"
             id="path11-5-0" /><path
             d="m 90.708661,1037.6828 -0.02889,0.4039 -0.05763,0.4009 -0.08609,0.3957 -0.114083,0.3885 -0.141519,0.3794 -0.168225,0.3684 -0.194078,0.3554 -0.218941,0.3407 -0.242681,0.3242 -0.265193,0.306 -0.286347,0.2864 -0.306047,0.2652 -0.324189,0.2427 -0.340665,0.2189 -0.35543,0.1941 -0.368362,0.1682 -0.379429,0.1415 -0.388547,0.1141 -0.395705,0.086 -0.400842,0.058 -0.403926,0.029 H 84.83689 l -0.403925,-0.029 -0.400843,-0.058 -0.395705,-0.086 -0.388547,-0.1141 -0.379429,-0.1415 -0.368362,-0.1682 -0.355429,-0.1941 -0.340666,-0.2189 -0.324189,-0.2427 -0.306047,-0.2652 -0.286346,-0.2864 -0.265193,-0.306 -0.242682,-0.3242 -0.21894,-0.3407 -0.194079,-0.3554 -0.168225,-0.3684 -0.141519,-0.3794 -0.114083,-0.3885 -0.08609,-0.3957 -0.05763,-0.4009 -0.02889,-0.4039 v -0.405 l 0.02889,-0.4039 0.05763,-0.4008 0.08609,-0.3957 0.114083,-0.3886 0.141519,-0.3794 0.168225,-0.3684 0.194079,-0.3554 0.21894,-0.3407 0.242682,-0.3242 0.265193,-0.306 0.286346,-0.2863 0.306047,-0.2652 0.324189,-0.2427 0.340666,-0.219 0.355429,-0.194 0.368362,-0.1683 0.379429,-0.1415 0.388547,-0.1141 0.395705,-0.086 0.400843,-0.058 0.403925,-0.029 h 0.404952 l 0.403926,0.029 0.400842,0.058 0.395705,0.086 0.388547,0.1141 0.379429,0.1415 0.368362,0.1683 0.35543,0.194 0.340665,0.219 0.324189,0.2427 0.306047,0.2652 0.286347,0.2863 0.265193,0.306 0.242681,0.3242 0.218941,0.3407 0.194078,0.3554 0.168225,0.3684 0.141519,0.3794 0.114083,0.3886 0.08609,0.3957 0.05763,0.4008 0.02889,0.4039 z"
             style="fill:none;stroke:#000000"
             id="path12-4-08" /><path
             d="m 90.708661,1113.2733 -0.02889,0.404 -0.05763,0.4008 -0.08609,0.3957 -0.114083,0.3886 -0.141519,0.3794 -0.168225,0.3684 -0.194078,0.3554 -0.218941,0.3406 -0.242681,0.3242 -0.265193,0.3061 -0.286347,0.2863 -0.306047,0.2652 -0.324189,0.2427 -0.340665,0.2189 -0.35543,0.1941 -0.368362,0.1682 -0.379429,0.1416 -0.388547,0.1141 -0.395705,0.086 -0.400842,0.058 -0.403926,0.029 H 84.83689 l -0.403925,-0.029 -0.400843,-0.058 -0.395705,-0.086 -0.388547,-0.1141 -0.379429,-0.1416 -0.368362,-0.1682 -0.355429,-0.1941 -0.340666,-0.2189 -0.324189,-0.2427 -0.306047,-0.2652 -0.286346,-0.2863 -0.265193,-0.3061 -0.242682,-0.3242 -0.21894,-0.3406 -0.194079,-0.3554 -0.168225,-0.3684 -0.141519,-0.3794 -0.114083,-0.3886 -0.08609,-0.3957 -0.05763,-0.4008 -0.02889,-0.404 v -0.4049 l 0.02889,-0.4039 0.05763,-0.4009 0.08609,-0.3957 0.114083,-0.3885 0.141519,-0.3795 0.168225,-0.3683 0.194079,-0.3554 0.21894,-0.3407 0.242682,-0.3242 0.265193,-0.3061 0.286346,-0.2863 0.306047,-0.2652 0.324189,-0.2427 0.340666,-0.2189 0.355429,-0.1941 0.368362,-0.1682 0.379429,-0.1415 0.388547,-0.1141 0.395705,-0.086 0.400843,-0.058 0.403925,-0.029 h 0.404952 l 0.403926,0.029 0.400842,0.058 0.395705,0.086 0.388547,0.1141 0.379429,0.1415 0.368362,0.1682 0.35543,0.1941 0.340665,0.2189 0.324189,0.2427 0.306047,0.2652 0.286347,0.2863 0.265193,0.3061 0.242681,0.3242 0.218941,0.3407 0.194078,0.3554 0.168225,0.3683 0.141519,0.3795 0.114083,0.3885 0.08609,0.3957 0.05763,0.4009 0.02889,0.4039 z"
             style="fill:none;stroke:#000000"
             id="path13-6-58" /></g></g></g></g></svg>
